<?xml version="1.0" standalone="no"?>
<!DOCTYPE svg PUBLIC "-//W3C//DTD SVG 20010904//EN"
 "http://www.w3.org/TR/2001/REC-SVG-20010904/DTD/svg10.dtd">
<svg version="1.0" xmlns="http://www.w3.org/2000/svg"
 width="512.000000pt" height="512.000000pt" viewBox="0 0 512.000000 512.000000"
 preserveAspectRatio="xMidYMid meet">
<metadata>
Created by potrace 1.16, written by Peter Selinger 2001-2019
</metadata>
<g transform="translate(0.000000,512.000000) scale(0.100000,-0.100000)"
fill="#000000" stroke="none">
<path d="M840 4316 c0 -32 6 -56 17 -68 9 -10 17 -38 18 -63 1 -24 10 -55 19
-69 22 -35 20 -156 -4 -156 -4 0 -22 16 -41 36 -19 20 -47 44 -64 55 -16 10
-24 19 -17 19 7 0 10 5 7 10 -10 17 -25 11 -34 -12 -5 -13 -23 -38 -40 -56
l-30 -33 15 -68 c18 -78 42 -111 83 -111 39 0 63 31 68 87 7 76 10 79 38 53
25 -23 25 -25 25 -195 l0 -171 -35 -54 c-34 -52 -35 -58 -35 -147 0 -80 3 -96
20 -113 11 -11 27 -20 36 -20 14 0 15 -77 14 -762 -1 -420 -4 -800 -7 -845
l-5 -82 -26 29 c-26 29 -62 41 -62 19 0 -6 -7 -3 -16 5 -18 18 -40 21 -49 6
-5 -8 -11 -7 -21 1 -19 15 -47 -7 -41 -33 3 -11 0 -18 -8 -18 -11 0 -13 144
-8 833 l5 832 -21 23 c-16 16 -33 22 -65 22 -38 0 -48 -5 -75 -35 -17 -20 -31
-42 -31 -50 0 -9 -10 -15 -24 -15 -14 0 -28 -4 -31 -10 -4 -6 32 -10 99 -10
58 0 106 -4 106 -9 0 -5 -51 -9 -117 -8 l-118 2 0 -135 0 -135 120 -3 120 -3
-3 -682 -2 -682 -29 2 c-47 4 -47 -16 -2 -57 22 -21 41 -42 41 -47 0 -5 -16
-7 -35 -5 -30 4 -35 1 -35 -16 0 -11 13 -31 29 -44 l30 -23 1 -145 c1 -80 1
-151 1 -157 -1 -7 -19 -16 -42 -19 -55 -9 -37 -22 36 -26 l60 -3 -150 -75
c-148 -74 -150 -75 -153 -110 -3 -33 -7 -37 -52 -53 -60 -21 -65 -43 -12 -54
49 -11 4436 -10 4485 0 48 10 44 26 -11 52 -36 17 -42 24 -42 51 0 37 -6 43
-139 133 -58 39 -107 79 -109 88 -3 10 -7 89 -9 175 -4 129 -7 158 -19 158
-11 0 -14 -25 -14 -138 0 -150 -10 -182 -55 -182 -22 0 -24 4 -30 87 -9 105
11 203 56 272 16 25 29 48 29 53 0 4 7 8 15 8 12 0 15 14 15 68 1 37 5 371 10
742 9 722 8 706 60 773 31 39 94 66 172 74 59 5 68 8 63 24 -3 9 -1 20 5 24
19 12 -1 25 -39 25 -104 0 -196 -57 -237 -145 l-24 -50 0 103 c0 93 -2 103
-17 100 -17 -3 -18 -52 -21 -836 -1 -631 -5 -831 -14 -826 -8 5 -9 2 -5 -9 4
-11 1 -17 -9 -17 -12 0 -13 4 -4 20 10 18 7 22 -19 31 -39 14 -40 34 -1 48 33
11 37 27 16 57 -8 10 -12 29 -9 41 4 18 -1 25 -20 32 -14 5 -28 15 -32 20 -9
15 -78 14 -93 -1 -7 -7 -12 -20 -12 -30 0 -12 -8 -18 -23 -18 -13 0 -28 -5
-35 -12 -9 -9 -12 165 -12 786 l0 797 21 -6 c45 -15 99 30 90 75 -2 8 7 3 19
-12 28 -36 81 -39 104 -6 18 25 22 17 6 -12 -19 -35 -88 -33 -112 4 -5 7 -8 6
-8 -3 0 -19 30 -40 58 -41 l24 0 -8 -767 c-5 -576 -4 -764 5 -759 8 5 11 109
11 374 0 658 11 1162 26 1162 26 0 44 57 44 137 0 65 -4 84 -25 118 -24 39
-24 46 -25 227 0 122 4 196 12 213 9 19 9 28 0 37 -15 15 -16 134 -2 143 6 3
10 26 10 51 0 25 7 67 16 94 9 26 14 58 12 69 l-3 21 -1807 3 -1808 2 0 -49z
m3596 12 c-3 -13 -6 -29 -6 -35 0 -10 -364 -13 -1785 -13 l-1785 0 0 35 0 35
1791 0 1791 0 -6 -22z m-26 -100 c0 -68 120 -63 -1382 -67 -750 -2 -1535 0
-1744 4 l-382 7 -6 36 c-3 19 -3 39 0 44 3 4 795 8 1760 8 l1754 0 0 -32z
m-3156 -93 c-9 -22 -329 -22 -338 0 -5 13 18 15 169 15 151 0 174 -2 169 -15z
m3150 0 c-5 -12 -38 -15 -182 -17 l-177 -3 0 -30 c1 -16 4 -47 8 -67 l8 -38
-551 0 -550 0 0 70 0 70 -355 0 -355 0 0 -70 0 -69 -501 -1 c-476 0 -501 1
-494 17 5 10 10 48 13 86 l4 67 1569 0 c1379 0 1568 -2 1563 -15z m-3166 -77
l-3 -53 -152 -3 -153 -3 0 56 0 55 156 0 155 0 -3 -52z m1710 -22 c3 -67 3
-68 -20 -62 -13 3 -166 6 -340 6 l-318 0 0 65 0 65 338 -2 337 -3 3 -69z
m1440 22 l-3 -53 -147 -3 c-165 -3 -153 -9 -162 76 l-3 32 159 0 159 0 -3 -52z
m-3598 -33 c11 -13 7 -15 -24 -15 -40 0 -49 16 -13 23 12 2 23 5 23 6 1 0 7
-6 14 -14z m30 -34 c0 -8 -90 -3 -99 5 -2 2 19 4 47 4 29 0 52 -4 52 -9z m400
-19 c0 -26 -30 -32 -162 -32 -131 0 -138 1 -138 20 0 19 7 20 150 20 83 0 150
-4 150 -8z m3185 -12 c0 -24 -217 -27 -1774 -29 -1421 -1 -1424 -1 -1406 19
18 20 33 20 1429 20 1319 -1 1411 -2 1429 -18 19 -16 19 -16 13 6 l-8 23 159
-3 c133 -3 158 -5 158 -18z m-3612 3 c-18 -2 -48 -2 -65 0 -18 2 -4 4 32 4 36
0 50 -2 33 -4z m27 -42 c0 -42 -14 -82 -32 -92 -30 -16 -56 -1 -68 39 -19 68
-16 72 45 72 47 0 55 -3 55 -19z m340 -21 c0 -16 -7 -20 -30 -20 -31 0 -42
-14 -178 -230 l-22 -35 0 153 0 152 115 0 c108 0 115 -1 115 -20z m3220 -147
l0 -166 -89 144 c-82 133 -91 144 -122 149 -22 3 -35 11 -37 23 -3 15 8 17
122 17 l126 0 0 -167z m-284 145 c4 -5 -646 -8 -1444 -8 -799 0 -1452 3 -1452
8 0 9 2886 9 2896 0z m-3027 -229 c-87 -164 -110 -200 -117 -180 -2 5 36 80
84 167 109 198 117 211 121 197 2 -6 -38 -89 -88 -184z m731 175 c0 -2 -22
-78 -50 -169 -42 -139 -50 -179 -50 -245 0 -44 -4 -80 -9 -80 -33 0 -41 14
-41 72 0 81 113 440 135 431 8 -3 15 -7 15 -9z m2450 -86 c34 -57 85 -138 111
-181 27 -43 49 -80 49 -82 0 -3 -9 -5 -20 -5 -13 0 -31 18 -53 53 -38 60 -177
305 -177 312 0 3 6 5 13 5 8 0 42 -46 77 -102z m-2889 50 c-10 -24 -48 -108
-85 -187 -36 -79 -66 -145 -66 -147 0 -1 26 -4 57 -6 l58 -3 11 -52 12 -53
-134 0 -134 0 0 66 c0 65 2 71 96 245 l96 179 54 0 53 0 -18 -42z m237 -135
c-34 -98 -64 -179 -67 -180 -3 -2 -5 -32 -3 -67 l4 -63 -32 -7 c-53 -10 -117
-7 -128 7 -16 19 -36 108 -26 116 5 3 10 13 11 21 1 8 27 76 58 150 31 74 63
150 70 168 l14 32 80 0 81 0 -62 -177z m422 173 c0 -3 -16 -77 -35 -165 -25
-113 -35 -184 -35 -246 l0 -86 -67 3 -68 3 2 65 c1 39 21 137 50 248 l48 182
52 0 c29 0 53 -2 53 -4z m104 -38 c-3 -24 -15 -97 -26 -163 -11 -66 -23 -158
-27 -205 l-6 -85 -47 -3 -48 -3 0 93 c0 66 9 139 32 251 l33 157 47 0 48 0 -6
-42z m100 10 c-27 -195 -44 -381 -39 -420 l7 -48 -45 0 -44 0 -7 49 c-4 32 2
111 19 228 35 243 28 223 75 223 38 0 39 -1 34 -32z m181 -25 c-11 -117 -25
-318 -25 -374 0 -56 -1 -58 -30 -64 -59 -13 -70 -1 -70 73 0 63 28 383 36 410
2 7 21 12 49 12 l46 0 -6 -57z m223 -190 l-3 -248 -62 -3 -63 -3 0 114 c0 63
3 175 7 250 l6 137 59 0 59 0 -3 -247z m102 -4 l0 -250 -42 3 -43 3 -3 65 c-2
36 -1 147 3 248 l7 182 39 0 39 0 0 -251z m121 174 c0 -43 4 -152 8 -243 4
-91 4 -169 0 -173 -3 -5 -9 54 -13 130 -3 76 -9 189 -12 251 -5 79 -3 112 5
112 7 0 11 -28 12 -77z m199 73 c0 -2 6 -66 14 -142 22 -212 29 -310 21 -333
-5 -18 -14 -21 -56 -21 l-49 0 0 66 c0 62 -15 318 -24 397 l-4 37 49 0 c27 0
49 -2 49 -4z m178 -189 c36 -212 42 -307 17 -307 -8 0 -15 8 -15 19 0 10 -3
39 -6 65 -6 40 -4 46 12 47 17 1 17 2 2 6 -10 2 -18 8 -18 11 0 4 -11 79 -25
167 -29 187 -29 185 -12 185 8 0 23 -63 45 -193z m213 23 c28 -119 39 -188 39
-247 l0 -83 -50 0 -50 0 0 83 c0 52 -13 143 -34 250 l-33 168 45 -3 45 -3 38
-165z m257 -13 c53 -154 62 -192 62 -249 l0 -68 -74 0 c-84 0 -86 2 -86 82 0
40 -49 246 -96 401 -5 15 3 17 63 17 l68 0 63 -183z m93 21 c56 -146 63 -172
67 -251 l4 -88 -38 3 -39 3 -6 80 c-5 61 -20 117 -63 238 -31 87 -56 162 -56
168 0 5 15 9 34 9 l34 0 63 -162z m149 105 c13 -32 45 -102 72 -155 47 -96 48
-99 48 -193 l0 -95 -44 0 -43 0 -5 83 c-5 73 -13 99 -73 242 -37 88 -69 163
-72 168 -2 4 18 7 45 7 l48 0 24 -57z m239 -132 c93 -174 101 -194 101 -244 0
-61 -7 -67 -81 -67 l-37 0 -3 78 c-4 73 -8 85 -86 246 -46 92 -83 170 -83 172
0 2 20 4 44 4 l44 0 101 -189z m-991 -178 c-16 -2 -40 -2 -55 0 -16 2 -3 4 27
4 30 0 43 -2 28 -4z m1242 -17 c0 -11 -19 -15 -25 -6 -3 5 1 10 9 10 9 0 16
-2 16 -4z m-2397 -133 c-13 -2 -33 -2 -45 0 -13 2 -3 4 22 4 25 0 35 -2 23 -4z
m345 -5 c-3 -8 -21 -13 -43 -13 -22 0 -40 5 -42 13 -3 8 9 12 42 12 33 0 45
-4 43 -12z m336 3 c15 -6 16 -10 7 -16 -7 -4 -16 -3 -20 3 -3 5 -17 12 -31 15
l-25 4 25 1 c14 0 34 -3 44 -7z m746 -31 c-12 -23 -48 -40 -67 -33 -7 3 -13
18 -13 33 0 27 3 29 43 32 47 3 53 -2 37 -32z m254 30 c-36 -14 -77 -16 -81
-2 -3 9 10 12 49 11 39 0 47 -3 32 -9z m346 -37 c0 -25 -1 -44 -3 -42 -1 2
-11 15 -22 28 -18 21 -18 24 -2 18 9 -4 17 -2 17 4 0 5 -11 14 -25 19 -33 13
-32 20 5 20 29 0 30 -1 30 -47z m-3086 5 c16 -31 53 -35 81 -8 15 14 25 18 30
11 3 -7 3 -10 -2 -9 -5 2 -19 -7 -33 -19 -31 -30 -54 -29 -78 2 -27 33 -36 19
-11 -16 25 -36 58 -37 89 -4 18 19 26 22 32 13 4 -7 8 -418 9 -913 l2 -900 8
765 c5 421 10 826 11 900 2 110 0 137 -12 148 -13 11 -12 11 7 3 29 -15 66
-14 83 2 12 10 12 9 1 -5 -7 -10 -28 -19 -45 -19 -17 -1 -23 -3 -13 -6 15 -4
17 -23 17 -224 l0 -219 500 0 500 0 0 -660 0 -660 -205 0 c-194 0 -205 1 -215
20 -10 19 -7 20 82 21 51 1 136 1 189 -1 l96 -2 6 308 c4 170 7 449 7 619 l0
310 -407 -1 c-225 -1 -367 2 -318 6 80 6 71 7 -72 7 l-163 1 0 -639 0 -639
-32 -29 c-37 -33 -31 -51 18 -51 l34 0 2 -132 2 -133 3 125 c3 84 8 127 16
132 7 4 32 8 57 8 40 0 48 -4 63 -29 17 -28 17 -30 -2 -36 -25 -8 -36 -37 -18
-50 8 -5 17 -36 21 -68 l7 -57 -43 0 c-24 0 -54 -4 -68 -8 -18 -5 -7 -8 45
-12 l70 -5 3 -66 3 -66 -122 -6 c-67 -4 -157 -7 -201 -7 l-78 0 0 147 0 147
36 37 c44 45 41 69 -9 69 -32 0 -34 2 -29 27 3 15 14 35 25 44 25 19 17 49
-13 49 -20 0 -20 2 -20 864 0 566 3 867 10 871 19 12 11 26 -9 15 -24 -12 -58
-13 -65 -1 -4 5 3 7 15 4 26 -7 67 14 75 39 7 22 12 19 28 -14z m290 -20 c4 2
20 1 37 -3 22 -5 36 -2 50 11 19 17 21 17 42 -10 28 -35 52 -32 95 13 l32 34
21 -27 c28 -35 55 -33 79 7 11 17 20 25 20 17 0 -9 -7 -25 -15 -38 -14 -19
-14 -21 -1 -16 8 3 18 15 21 25 6 19 8 18 27 -6 28 -36 63 -33 105 11 30 32
32 33 21 9 -23 -50 -93 -70 -127 -36 -17 17 -18 17 -29 0 -9 -14 -19 -17 -47
-12 -39 6 -47 -3 -12 -17 16 -6 17 -9 5 -9 -9 -1 -29 14 -44 32 l-26 33 -28
-28 c-35 -34 -69 -36 -101 -4 -20 20 -26 22 -37 10 -10 -11 -10 -14 0 -15 7 0
2 -5 -11 -10 -26 -10 -65 -3 -56 11 3 4 -2 10 -10 14 -20 7 -19 -9 2 -29 9
-10 27 -15 42 -13 l26 4 -40 -86 c-23 -47 -46 -96 -52 -110 -11 -23 -12 -24
-12 -4 -1 12 6 59 15 104 14 78 14 84 -4 121 -11 21 -22 36 -25 33 -3 -3 -3 5
0 17 6 23 7 23 19 -6 7 -17 15 -29 18 -27z m957 -2 c8 4 9 3 5 -5 -6 -9 -11
-9 -22 0 -11 9 -14 9 -14 0 0 -7 -4 -10 -9 -6 -5 3 -12 1 -16 -5 -10 -15 -61
-12 -75 5 -12 14 -15 14 -32 -1 -27 -25 -66 -27 -78 -4 -14 25 -13 35 3 22 17
-14 66 -19 67 -7 1 6 6 16 12 23 9 10 13 8 22 -10 18 -36 67 -32 86 8 l15 31
12 -29 c8 -18 17 -27 24 -22z m1069 -1 c10 -3 30 -1 42 6 21 11 22 11 9 -4
-18 -22 -49 -22 -74 1 -20 16 -20 16 -13 -3 4 -11 4 -16 0 -12 -4 4 -13 2 -21
-5 -11 -9 -12 -7 -6 7 6 18 5 18 -17 2 -33 -23 -63 -21 -91 4 l-24 20 27 -17
c36 -21 71 -12 100 26 l22 31 13 -25 c7 -14 22 -27 33 -31z m-1330 20 c-8 -10
-10 -19 -4 -25 9 -9 3 -198 -11 -325 -11 -103 2 -75 20 42 16 110 40 222 50
231 3 3 4 -73 3 -169 l-3 -174 -77 -3 c-43 -2 -78 -2 -78 0 2 41 71 372 80
383 16 19 3 20 -16 0 -9 -8 -27 -15 -40 -15 -25 0 -74 40 -74 60 0 6 12 -2 26
-19 24 -29 74 -46 58 -19 -5 8 -2 9 9 5 12 -4 24 3 39 23 12 16 24 28 26 25 3
-2 -1 -12 -8 -20z m2205 -5 c-6 -10 64 -30 80 -23 8 2 18 17 24 31 6 18 10 21
10 10 1 -10 -8 -27 -20 -39 -20 -20 -41 -21 -79 -5 -13 5 -15 -90 -12 -836 3
-762 2 -840 -12 -829 -14 12 -16 79 -16 587 l0 573 -37 7 c-20 4 -138 3 -262
-2 -124 -5 -365 -9 -535 -9 l-309 0 2 -215 c3 -411 13 -1005 18 -1010 3 -3
233 -4 513 -4 482 1 507 1 503 -16 -3 -10 -15 -21 -26 -24 -12 -3 -255 -6
-540 -6 l-517 0 0 660 1 660 593 0 593 0 8 233 c4 127 7 246 6 262 -1 22 1 26
8 15 5 -8 8 -17 6 -20z m-1785 5 c-18 -21 -49 -28 -66 -14 -12 10 -18 8 -30
-9 -15 -21 -62 -32 -49 -12 4 6 10 8 15 5 5 -3 15 3 22 14 10 17 19 19 54 14
26 -3 44 -1 48 6 4 6 10 11 13 11 3 0 0 -7 -7 -15z m74 -25 c7 0 19 7 26 15
17 20 32 19 53 -5 21 -24 35 -25 67 -3 l25 17 -20 -24 c-18 -21 -18 -23 -2
-17 10 4 16 3 12 -3 -9 -15 -68 0 -88 23 -12 14 -21 17 -28 10 -15 -15 38 -55
65 -48 12 3 17 3 11 0 -6 -3 -9 -70 -7 -180 l3 -175 -71 0 -71 0 2 180 2 180
28 0 c31 0 46 14 28 26 -7 4 -10 3 -7 -2 7 -10 -67 -12 -78 -2 -4 4 -16 2 -27
-4 -19 -10 -18 -8 3 18 23 28 25 29 42 12 10 -10 24 -18 32 -18z m520 25 c3
-8 9 -15 13 -14 22 4 32 -2 27 -16 -4 -8 -10 -12 -15 -9 -5 3 -6 10 -3 16 4 7
2 8 -4 4 -9 -5 -12 -69 -12 -215 l0 -208 253 -5 c138 -3 317 -4 397 -3 80 1
216 3 304 4 133 1 157 3 153 15 -3 8 -9 31 -13 52 -5 27 -4 35 5 30 19 -12 3
39 -51 157 -27 59 -46 113 -42 119 4 7 10 5 16 -6 14 -26 26 -19 24 15 -1 16
2 33 7 36 6 3 7 1 3 -6 -4 -7 5 -18 23 -29 30 -17 31 -18 32 -102 1 -47 5
-114 9 -150 7 -64 7 -63 10 40 5 220 17 231 19 18 l1 -208 -352 -2 c-353 -3
-810 1 -816 6 -1 2 -3 105 -3 230 -1 124 -2 226 -4 226 -2 0 -21 -11 -41 -25
-40 -27 -54 -31 -54 -14 0 5 -4 8 -9 5 -5 -3 -11 1 -15 9 -4 12 -9 12 -32 0
-14 -7 -34 -10 -43 -7 -11 5 -5 8 17 10 18 2 36 10 38 17 5 11 11 10 33 -6 30
-22 64 -16 90 15 17 20 27 20 35 1z m117 -3 c-10 -19 -41 -48 -41 -39 0 6 43
57 48 57 1 0 -2 -8 -7 -18z m527 6 c6 -6 33 -14 59 -18 42 -7 50 -5 62 13 14
20 14 20 35 -5 32 -40 59 -43 95 -12 28 24 33 25 44 11 19 -26 60 -37 75 -21
7 8 17 14 23 14 6 0 -3 -11 -19 -25 -34 -29 -54 -31 -72 -10 -11 13 -15 12
-37 -5 -14 -11 -37 -20 -52 -19 -23 1 -23 2 7 9 36 8 74 38 67 51 -3 4 -17 -4
-31 -18 -19 -19 -32 -24 -53 -20 -20 4 -28 2 -28 -9 0 -18 22 -23 112 -27 44
-2 35 -3 -25 -3 -94 1 -95 1 -95 26 -1 14 -7 34 -14 46 -13 20 -14 20 -41 -8
-16 -16 -39 -28 -52 -27 -14 0 -17 3 -8 6 42 14 42 17 0 25 -25 4 -50 9 -57
10 -7 1 -10 5 -7 10 9 15 -6 8 -25 -11 -11 -11 -17 -21 -15 -23 8 -9 -61 5
-73 14 -8 6 -19 -2 -36 -26 -13 -20 -27 -33 -30 -29 -4 3 -7 1 -7 -5 0 -6 -7
-9 -15 -6 -12 5 -14 2 -8 -12 6 -17 5 -18 -11 -4 -18 14 -17 15 8 25 35 15 87
66 79 79 -4 6 3 3 14 -6 26 -24 66 -23 88 2 21 23 27 24 43 8z m-857 -53 c18
-6 19 -17 19 -186 l0 -179 -50 0 -50 0 0 180 0 180 25 0 c22 0 23 3 15 24 -5
13 -6 27 -2 31 4 3 10 -5 15 -19 5 -14 17 -28 28 -31z m-951 31 c0 -2 -8 -10
-17 -17 -16 -13 -17 -12 -4 4 13 16 21 21 21 13z m877 -12 c24 5 25 4 10 -5
-21 -12 -67 -4 -67 12 0 8 5 7 15 -1 9 -7 26 -10 42 -6z m1434 -4 c-24 -20
-51 -27 -51 -12 0 6 41 24 70 30 3 1 -6 -8 -19 -18z m-716 -28 c-6 -7 -45 19
-45 29 0 5 11 2 24 -8 13 -10 23 -19 21 -21z m-2782 19 c4 -1 7 -10 7 -20 0
-11 -3 -22 -7 -24 -16 -7 -113 15 -107 24 10 16 47 28 74 24 14 -2 28 -4 33
-4z m1077 -51 c0 -15 -20 -12 -26 5 -4 8 -18 15 -32 15 -25 0 -25 0 -7 20 l19
21 23 -25 c13 -14 23 -30 23 -36z m623 53 c-10 -3 -13 -51 -13 -189 l0 -184
-49 0 -50 0 -3 38 c-2 20 -2 103 0 185 3 140 4 147 22 137 13 -7 28 -6 52 5
18 8 38 14 43 14 6 0 4 -3 -2 -6z m1025 -22 c-1 -29 -1 -29 -27 -14 -21 12
-23 12 -8 0 16 -14 16 -15 0 -28 -10 -7 -15 -9 -10 -4 4 5 -5 21 -19 37 -23
23 -24 27 -8 24 10 -3 27 -7 36 -11 12 -5 20 -2 24 9 9 24 13 20 12 -13z m395
-84 c-37 -63 -163 -120 -292 -132 l-56 -6 70 24 c39 13 88 33 111 45 50 25
103 84 110 121 4 19 17 33 37 43 l32 15 3 -39 c2 -25 -4 -51 -15 -71z m-2546
-30 c-4 -78 -3 -137 3 -143 5 -5 10 -36 12 -69 l3 -60 443 2 443 2 2 184 c1
102 5 189 9 192 4 4 14 5 23 1 13 -5 15 -31 13 -203 l-3 -198 -430 0 c-236 -1
-455 2 -485 5 l-55 5 4 200 c2 110 5 203 8 208 13 22 15 -6 10 -126z m573 128
c0 -14 -52 -25 -68 -14 -16 10 -16 10 0 5 10 -3 28 -1 40 4 29 11 28 11 28 5z
m1160 -205 l0 -210 -380 0 c-297 0 -380 3 -380 13 0 9 79 12 362 12 l363 0 3
190 c2 175 6 203 30 205 1 0 2 -94 2 -210z m260 192 c3 -2 -9 -3 -25 0 l-30 4
6 -86 c22 -285 22 -280 1 -280 -17 0 -19 11 -25 123 -3 67 -3 152 0 189 l6 67
31 -6 c17 -3 33 -8 36 -11z m-87 -289 l6 -73 -30 0 c-16 0 -29 6 -30 13 -5 65
5 306 14 326 9 22 12 11 22 -84 7 -60 15 -143 18 -182z m-2525 257 c22 0 32
-5 32 -15 0 -12 -13 -15 -60 -15 -43 0 -60 4 -60 13 0 21 12 29 35 23 11 -3
35 -6 53 -6z m1070 -15 c7 -7 -17 -6 -45 1 -13 4 -23 10 -23 14 0 8 58 -4 68
-15z m529 -182 c-2 -37 -3 -9 -3 62 0 72 1 102 3 68 2 -34 2 -93 0 -130z
m2583 118 c0 -11 -35 -21 -76 -21 -17 0 -53 -11 -80 -25 l-49 -24 30 25 c46
38 175 71 175 45z m-3145 -30 c40 -9 40 -9 -17 -10 -31 0 -60 4 -63 9 -7 12
24 12 80 1z m-1120 -21 c0 -22 -29 -18 -33 3 -3 14 1 18 15 15 10 -2 18 -10
18 -18z m41 3 c-3 -19 -19 -21 -21 -2 -2 9 3 16 10 16 7 0 12 -6 11 -14z m41
2 c0 -8 -4 -15 -9 -15 -4 0 -8 7 -8 15 0 8 4 15 8 15 5 0 9 -7 9 -15z m3323
-65 c-10 -19 -88 -70 -106 -70 -5 1 7 9 27 20 20 10 47 30 60 44 29 31 33 32
19 6z m-3423 3 c-4 -3 -2 -11 3 -18 7 -8 5 -12 -5 -12 -8 0 -15 6 -15 12 0 12
10 25 18 25 3 0 2 -3 -1 -7z m53 -13 c0 -11 -4 -20 -10 -20 -5 0 -10 9 -10 20
0 11 5 20 10 20 6 0 10 -9 10 -20z m56 -2 c1 -12 -4 -18 -17 -18 -13 0 -19 7
-19 21 0 25 32 22 36 -3z m31 -15 c-3 -10 -5 -4 -5 12 0 17 2 24 5 18 2 -7 2
-21 0 -30z m-180 12 c0 -6 -6 -12 -14 -12 -7 0 -13 6 -13 12 0 6 6 12 13 12 8
0 14 -6 14 -12z m963 -39 c63 -9 133 -17 155 -19 22 -2 4 -4 -40 -5 -124 -2
-290 22 -279 40 3 5 16 7 28 4 11 -3 73 -12 136 -20z m-887 -32 c7 18 27 13
27 -7 0 -8 -3 -8 -9 1 -7 11 -9 10 -15 -3 -7 -20 -26 -10 -25 13 0 14 2 14 8
-2 7 -18 8 -18 14 -2z m2413 -176 c-3 -29 -6 -425 -6 -880 l0 -828 -375 0
-375 0 0 880 0 880 381 0 382 0 -7 -52z m-1728 -611 c2 -527 0 -597 -13 -597
-13 0 -15 72 -15 601 0 476 3 600 13 597 9 -4 13 -135 15 -601z m2921 536 l-2
-68 -7 55 c-6 50 -4 80 6 80 2 0 3 -30 3 -67z m-2455 24 c-3 -15 -1 -13 7 6
10 25 15 27 63 27 29 0 55 -3 58 -6 4 -3 -2 -36 -12 -72 -10 -37 -17 -69 -14
-71 2 -2 4 1 4 8 0 15 58 12 79 -3 11 -8 0 -12 -45 -16 l-59 -5 -5 -68 c-5
-74 -15 -87 -65 -87 -51 0 -57 10 -53 89 l3 71 -62 0 c-69 0 -67 3 -64 -72 3
-58 -22 -88 -72 -88 -46 0 -57 15 -57 79 0 42 9 78 37 143 l37 87 55 3 c31 2
81 2 112 0 52 -3 56 -5 53 -25z m277 6 c-23 25 -23 27 -5 27 45 0 64 -12 64
-39 0 -35 -9 -44 -29 -28 -14 11 -14 10 -2 -5 7 -10 17 -16 20 -13 7 4 7 -16
3 -157 -2 -54 -21 -78 -60 -78 -51 0 -72 25 -72 83 0 29 4 68 9 87 5 19 15 61
21 93 l12 59 31 -29 32 -28 -24 28z m1616 -78 c12 -49 23 -94 23 -98 0 -4 -22
-7 -49 -6 l-48 2 -17 96 c-9 53 -16 99 -16 102 0 3 19 3 42 0 l42 -6 23 -90z
m129 3 l29 -103 93 -3 c108 -3 107 -5 67 102 -37 98 -35 108 21 104 l47 -3 22
-65 c12 -36 32 -87 44 -114 25 -56 37 -154 22 -176 -9 -13 -14 -13 -40 3 -46
27 -56 24 -91 -32 -7 -12 -12 -11 -28 9 l-20 25 -20 -25 -20 -25 -27 25 -27
25 -15 -22 c-20 -30 -47 -29 -67 2 -9 14 -25 25 -35 25 -22 0 -31 19 -31 61 0
17 -13 84 -30 149 -16 65 -30 124 -30 129 0 7 22 11 53 11 l53 0 30 -102z
m-1597 10 c0 -46 -3 -76 -6 -68 -8 21 -34 50 -45 50 -5 0 -6 -5 -2 -12 5 -7 3
-8 -5 -3 -9 5 -9 11 -3 17 6 6 8 17 5 26 -4 10 -2 13 5 8 16 -10 16 36 0 52
-9 9 -5 12 20 12 l32 0 -1 -82z m1020 44 c27 -53 77 -95 166 -137 l75 -36 0
-71 c0 -52 -4 -76 -17 -90 -21 -24 -40 -23 -48 2 -3 11 -14 20 -24 20 -10 0
-26 -9 -36 -20 -22 -24 -43 -26 -52 -4 -4 10 -13 14 -28 10 -21 -5 -22 -2 -29
87 -7 109 -28 194 -52 216 -16 15 -17 15 -6 0 18 -24 42 -144 42 -209 0 -58
-11 -80 -41 -80 -23 0 -30 39 -35 208 l-4 142 35 0 c30 0 37 -5 54 -38z m239
-54 c6 -51 9 -94 6 -97 -15 -15 -204 115 -204 140 0 6 -10 19 -22 30 -23 18
-22 18 93 19 l116 0 11 -92z m82 89 c0 -2 9 -52 20 -112 26 -139 26 -218 3
-236 -15 -11 -16 -11 -5 1 13 15 16 69 6 119 -5 23 -12 31 -28 31 -41 0 -54
21 -65 103 -6 43 -11 83 -11 88 0 5 18 9 40 9 22 0 40 -1 40 -3z m-2117 -184
c-7 -2 -19 -2 -25 0 -7 3 -2 5 12 5 14 0 19 -2 13 -5z m-46 -80 c-2 -16 -4 -3
-4 27 0 30 2 43 4 28 2 -16 2 -40 0 -55z m2840 -205 c-1 -51 -3 -12 -3 87 0
99 2 141 3 93 2 -48 2 -129 0 -180z m-2052 179 c19 -4 19 -5 -1 -6 -12 0 -28
7 -35 17 -12 15 -12 16 1 6 8 -7 24 -14 35 -17z m-270 -15 c-3 -3 -11 0 -18 7
-9 10 -8 11 6 5 10 -3 15 -9 12 -12z m42 2 c-3 -3 -12 -4 -19 -1 -8 3 -5 6 6
6 11 1 17 -2 13 -5z m1741 -51 c-10 -2 -28 -2 -40 0 -13 2 -5 4 17 4 22 1 32
-1 23 -4z m-2200 -60 l3 -53 -63 -2 -63 -2 63 -3 62 -4 0 -84 0 -85 -65 0 -65
0 0 145 0 146 63 -3 62 -3 3 -52z m180 -75 l-3 -43 -57 -3 -57 -3 -6 35 c-4
19 -4 39 0 45 3 6 33 11 66 11 l60 0 -3 -42z m157 -58 l0 -95 -43 -3 c-64 -5
-72 7 -72 103 0 45 3 85 7 89 4 4 30 6 58 4 l50 -3 0 -95z m1443 93 c-15 -2
-42 -2 -60 0 -18 2 -6 4 27 4 33 0 48 -2 33 -4z m22 -148 l0 -135 -70 0 -70 0
0 135 0 135 70 0 70 0 0 -135z m560 -5 l0 -120 -32 0 c-18 0 -77 -3 -130 -7
l-98 -6 0 126 0 127 130 0 130 0 0 -120z m-1851 76 c8 -10 9 -16 1 -21 -6 -3
-8 -11 -5 -16 4 -5 -20 -9 -54 -9 -58 0 -61 1 -61 24 0 27 13 33 71 35 21 0
42 -5 48 -13z m175 -2 c9 -3 16 -15 16 -25 0 -17 -8 -19 -75 -19 -60 0 -77 3
-82 16 -3 9 0 20 8 25 16 10 109 12 133 3z m-537 -21 c-20 -2 -52 -2 -70 0
-17 2 0 4 38 4 39 0 53 -2 32 -4z m-88 -35 c1 20 6 22 61 22 58 0 60 -1 60
-25 0 -26 -1 -26 -67 -23 -64 3 -68 4 -70 28 l-2 25 8 -25 c9 -24 9 -24 10 -2z
m2551 3 c0 -5 -49 -9 -110 -9 -63 -1 -110 3 -110 8 0 6 47 10 110 10 61 0 110
-4 110 -9z m-2100 -31 l0 -30 -60 0 -60 0 0 30 0 30 60 0 60 0 0 -30z m190 0
l0 -30 -75 0 c-58 0 -77 4 -81 15 -14 36 3 45 81 45 l75 0 0 -30z m2047 -187
c-1 -43 -3 -10 -3 72 0 83 2 118 3 78 2 -40 2 -107 0 -150z m-722 197 c4 -6
-13 -10 -43 -10 -27 0 -70 -3 -96 -6 -38 -6 -46 -4 -46 10 0 14 13 16 89 16
50 0 93 -4 96 -10z m585 -20 c0 -19 -7 -20 -105 -20 -98 0 -105 1 -105 20 0
19 7 20 105 20 98 0 105 -1 105 -20z m-582 -17 c3 -10 -20 -13 -92 -13 -115 0
-129 18 -18 23 102 4 105 4 110 -10z m-1880 0 c-16 -2 -40 -2 -55 0 -16 2 -3
4 27 4 30 0 43 -2 28 -4z m561 -26 c6 -8 8 -17 4 -20 -3 -4 -195 -7 -425 -7
-363 0 -418 2 -418 15 0 13 53 15 398 18 218 1 404 3 413 5 9 1 22 -4 28 -11z
m1321 -37 l0 -40 -95 0 -95 0 0 40 0 40 95 0 95 0 0 -40z m420 5 c0 -32 -2
-35 -30 -35 -28 0 -30 3 -30 35 0 32 2 35 30 35 28 0 30 -3 30 -35z m160 0 l0
-35 -75 0 -75 0 0 35 0 35 75 0 75 0 0 -35z m-2081 -59 c-11 -9 -130 -15 -124
-6 3 6 34 10 67 10 34 0 59 -2 57 -4z m2171 -4 c0 -14 -230 -22 -647 -22 -343
0 -393 2 -393 15 0 13 64 15 520 15 286 0 520 -4 520 -8z m-2480 -37 c0 -26 0
-26 -77 -23 -72 3 -78 5 -81 26 -3 21 -1 22 77 22 80 0 81 0 81 -25z m320 -5
c0 -18 -7 -20 -69 -20 -39 0 -73 5 -76 10 -13 21 9 30 76 30 62 0 69 -2 69
-20z m-550 -8 c0 -4 -18 -6 -40 -4 -22 2 -40 6 -40 8 0 2 18 4 40 4 22 0 40
-3 40 -8z m2445 -12 c-3 -5 -17 -10 -31 -10 -14 0 -22 4 -19 10 3 6 17 10 31
10 14 0 22 -4 19 -10z m68 2 c-8 -5 -9 -13 -3 -22 6 -8 10 -34 10 -58 0 -39
-2 -43 -22 -40 -21 3 -23 9 -23 58 -1 67 1 70 28 70 14 0 18 -3 10 -8z m70 1
c-7 -2 -21 -2 -30 0 -10 3 -4 5 12 5 17 0 24 -2 18 -5z m90 0 c-7 -2 -21 -2
-30 0 -10 3 -4 5 12 5 17 0 24 -2 18 -5z m-1960 -35 c6 -40 2 -48 -24 -48 -14
0 -19 7 -20 28 l-1 27 -7 -30 c-5 -25 -12 -31 -39 -33 -32 -3 -32 -3 -32 42
l0 46 59 0 c59 0 59 0 64 -32z m1085 5 c3 -21 -1 -23 -42 -23 -43 0 -46 2 -46
26 0 23 3 25 43 22 35 -2 43 -7 45 -25z m216 11 c12 -30 6 -34 -49 -34 -52 0
-55 1 -55 25 0 23 3 25 49 25 35 0 51 -4 55 -16z m-1984 -24 c0 -30 -1 -30
-54 -30 -30 0 -61 -3 -70 -6 -13 -5 -16 1 -16 30 l0 36 70 0 70 0 0 -30z m199
-80 c0 -79 -3 -112 -12 -115 -6 -3 -39 -2 -72 2 l-60 8 -3 63 c-3 61 -2 63 20
62 13 -1 43 -1 68 0 60 2 25 18 -42 19 -48 1 -48 1 -48 36 l0 35 74 0 74 0 1
-110z m321 75 l0 -35 -74 0 c-65 0 -74 2 -71 18 2 9 4 25 4 35 1 14 11 17 71
17 l70 0 0 -35z m2040 20 c0 -9 -9 -15 -25 -15 -24 0 -32 10 -18 23 12 13 43
7 43 -8z m90 -42 c0 -49 -2 -53 -24 -53 -28 0 -39 31 -30 79 5 25 11 30 30 29
22 -2 24 -7 24 -55z m-2322 10 l3 -33 -50 0 -51 0 0 36 0 35 48 -3 c45 -3 47
-4 50 -35z m2086 21 c3 -9 6 -31 6 -50 0 -31 -3 -34 -30 -34 -27 0 -30 3 -30
34 0 47 9 66 30 66 10 0 21 -7 24 -16z m-314 -55 c6 -12 2 -16 -20 -16 -25 0
-27 3 -19 18 5 10 9 28 10 41 0 23 0 23 11 -2 5 -14 14 -32 18 -41z m208 4 l3
-33 -80 0 -81 0 0 35 0 36 78 -3 77 -3 3 -32z m260 5 c-2 -28 -7 -33 -28 -33
-21 0 -26 5 -28 33 -3 30 -1 32 28 32 29 0 31 -2 28 -32z m-790 -16 c-3 -25
-7 -27 -60 -30 l-58 -3 0 33 0 33 61 -3 c59 -4 60 -5 57 -30z m207 -84 c10
-164 10 -163 -50 -163 l-50 0 -5 80 c-3 44 -3 106 -2 138 l4 57 48 0 48 0 7
-112z m-1985 62 l0 -40 -70 0 -70 0 0 34 c0 35 0 35 53 39 28 2 60 4 70 5 14
2 17 -6 17 -38z m520 10 c0 -18 -7 -20 -75 -20 -68 0 -75 2 -75 20 0 18 7 20
75 20 68 0 75 -2 75 -20z m160 -110 c0 -123 -1 -130 -20 -130 -19 0 -20 7 -20
130 0 123 1 130 20 130 19 0 20 -7 20 -130z m-346 89 c3 -17 6 -74 6 -125 l0
-94 -27 0 c-20 0 -24 -3 -14 -9 9 -6 10 -11 2 -15 -10 -7 -16 7 -12 28 3 13
-20 26 -46 26 -22 0 -23 3 -23 110 l0 110 54 0 c52 0 54 -1 60 -31z m296 -94
l0 -125 -35 0 -35 0 0 125 0 125 35 0 35 0 0 -125z m1488 -17 l3 -108 -41 0
-40 0 0 103 c0 57 3 107 7 111 4 4 21 6 38 4 l30 -3 3 -107z m190 85 c3 -22 1
-23 -77 -23 -80 0 -81 0 -81 25 0 26 0 26 78 23 71 -3 77 -5 80 -25z m-1788
-28 l0 -35 -73 0 -73 0 -2 35 -3 35 76 0 75 0 0 -35z m1298 -40 c5 -114 4
-115 -83 -115 l-75 0 0 80 0 80 73 2 72 2 -72 3 c-40 2 -73 8 -73 14 0 6 31 9
78 7 l77 -3 3 -70z m-1818 7 c0 -46 -2 -49 -36 -65 -50 -24 -104 -14 -104 19
0 23 4 24 68 26 l67 2 -67 3 c-68 4 -68 4 -68 33 l0 30 70 0 70 0 0 -48z
m2430 38 c11 -7 2 -10 -33 -10 -30 0 -46 4 -42 10 8 13 55 13 75 0z m250 -5
c0 -11 -11 -15 -40 -15 -29 0 -40 4 -40 15 0 11 11 15 40 15 29 0 40 -4 40
-15z m262 1 c8 -8 23 -15 33 -17 33 -7 27 -28 -14 -47 l-40 -20 -21 35 c-23
40 -25 49 -7 56 22 9 35 7 49 -7z m-444 -36 c2 -34 -1 -40 -18 -40 -21 0 -25
16 -14 58 10 37 31 26 32 -18z m49 22 c1 -9 2 -22 3 -27 5 -22 -1 -35 -15 -35
-11 0 -15 11 -15 40 0 26 5 40 13 40 7 0 13 -8 14 -18z m-239 -29 c3 -22 1
-23 -77 -23 -80 0 -81 0 -81 25 0 26 0 26 78 23 71 -3 77 -5 80 -25z m132 -48
c0 -60 -2 -65 -24 -71 -14 -3 -34 -3 -45 1 -18 6 -21 14 -21 71 l0 64 45 0 45
0 0 -65z m240 35 c0 -29 -2 -30 -45 -30 -43 0 -45 1 -45 30 0 29 2 30 45 30
43 0 45 -1 45 -30z m208 2 c2 -7 -2 -10 -12 -6 -9 3 -16 11 -16 16 0 13 23 5
28 -10z m-2368 -52 l0 -60 -74 0 -74 0 -7 30 c-4 17 -4 44 0 60 l7 30 74 0 74
0 0 -60z m2334 42 c6 -10 -15 -37 -41 -51 -20 -10 -23 -9 -23 5 0 33 49 69 64
46z m-2656 -34 c-2 -27 -8 -34 -29 -36 -22 -3 -25 -7 -21 -29 3 -17 1 -24 -6
-19 -6 4 -11 23 -10 42 1 19 -4 40 -10 46 -21 21 -13 28 34 28 45 0 45 0 42
-32z m-98 -45 c0 -23 -4 -45 -10 -48 -6 -4 -10 7 -10 27 0 18 -5 40 -10 48 -7
10 -8 1 -4 -30 8 -53 0 -52 -10 2 -5 27 -2 40 10 53 22 22 34 5 34 -52z m2208
25 l3 -36 -73 -4 c-40 -2 -79 0 -85 5 -14 10 -18 59 -6 71 4 4 41 5 83 4 l75
-3 3 -37z m578 34 c19 -12 23 -62 6 -78 -19 -19 -28 -9 -35 38 -7 45 3 58 29
40z m123 -5 c14 -18 4 -27 -31 -27 -26 0 -37 17 -21 33 11 12 40 8 52 -6z
m-519 -37 c0 -16 -4 -30 -10 -30 -5 0 -10 14 -10 30 0 17 5 30 10 30 6 0 10
-13 10 -30z m60 0 c0 -16 -4 -30 -9 -30 -5 0 -11 14 -13 30 -3 20 0 30 9 30 8
0 13 -12 13 -30z m130 13 c0 -2 -5 -13 -10 -24 -12 -22 -66 -27 -73 -6 -10 30
4 42 44 39 21 -2 39 -6 39 -9z m-3331 -73 c7 -19 14 -78 16 -130 4 -82 3 -89
-6 -50 -6 25 -19 74 -31 110 -11 36 -22 85 -24 109 l-4 44 18 -24 c11 -13 24
-40 31 -59z m35 64 c3 -9 5 -50 5 -92 -1 -42 -4 -66 -6 -52 -2 14 -11 51 -19
83 -8 33 -12 63 -8 68 8 14 21 11 28 -7z m624 4 c7 -7 12 -38 11 -77 l-1 -66
-13 63 c-15 77 -30 95 -22 27 l6 -50 -15 43 c-13 34 -13 46 -4 57 15 18 22 19
38 3z m2742 -6 l23 -18 -37 4 c-35 4 -43 11 -29 25 10 11 19 8 43 -11z m-3305
-9 c-8 -19 -16 -55 -37 -183 -7 -41 -14 -67 -16 -57 -2 9 1 40 7 68 6 27 11
76 11 107 0 54 11 82 33 82 5 0 6 -8 2 -17z m503 -15 c3 -15 -3 -17 -40 -15
-32 2 -44 8 -46 21 -3 15 3 17 40 14 31 -2 44 -8 46 -20z m2902 -19 c0 -25
-32 -33 -48 -12 -11 16 -10 20 9 36 24 19 39 10 39 -24z m120 11 c0 -28 -11
-50 -25 -50 -28 0 -34 66 -7 73 23 5 32 -1 32 -23z m-3508 -56 c-12 -25 -19
-50 -16 -56 4 -7 2 -8 -4 -4 -16 10 -15 38 4 86 12 29 20 38 27 31 8 -8 4 -24
-11 -57z m787 54 c0 -7 -7 -29 -14 -48 l-13 -35 0 48 c0 33 5 47 14 47 8 0 14
-6 13 -12z m2529 -30 c14 -30 7 -58 -15 -58 -16 0 -93 60 -93 73 0 13 43 24
70 17 14 -3 31 -18 38 -32z m-2578 8 c0 -14 -4 -27 -9 -31 -12 -7 -25 31 -16
45 11 18 25 10 25 -14z m-312 -21 l12 -25 -66 0 c-57 0 -65 2 -62 18 2 11 16
19 38 23 60 11 67 10 78 -16z m73 -30 c53 -57 99 -122 99 -139 -1 -6 -8 2 -17
19 -9 16 -44 57 -79 90 -35 34 -64 67 -64 74 0 19 11 11 61 -44z m174 -12 l-8
-38 -8 30 c-10 36 -2 72 13 57 6 -6 8 -25 3 -49z m-575 38 c0 -5 -9 -11 -20
-14 -20 -5 -26 3 -13 16 9 10 33 8 33 -2z m755 -50 c-13 -14 -15 -12 -15 15 0
17 3 34 7 38 4 4 11 -3 15 -15 6 -16 4 -27 -7 -38z m2390 28 c42 -37 44 -56 9
-70 -29 -11 -58 7 -69 42 -6 16 9 59 20 59 2 0 20 -14 40 -31z m163 -16 c-4
-56 -21 -66 -37 -22 -18 53 -14 61 32 68 4 0 7 -20 5 -46z m52 32 c19 -23 -5
-95 -31 -95 -5 0 -9 25 -9 55 0 57 14 71 40 40z m-2642 -28 c2 -15 -1 -27 -7
-27 -14 0 -33 38 -26 51 11 17 30 4 33 -24z m2737 23 c-3 -5 -13 -10 -21 -10
-8 0 -14 5 -14 10 0 6 9 10 21 10 11 0 17 -4 14 -10z m-3717 -17 c5 -18 -10
-16 -34 2 -18 15 -18 15 5 13 14 -2 26 -9 29 -15z m206 -16 c-21 -12 -30 -1
-14 18 10 13 15 13 21 3 5 -8 2 -16 -7 -21z m584 21 c14 -14 16 -94 3 -103 -6
-3 -12 12 -14 32 -3 33 -5 35 -12 16 -4 -13 -11 -20 -16 -17 -14 8 -11 72 4
77 19 8 22 8 35 -5z m-848 -19 c13 -7 13 -8 0 -8 -8 0 -26 6 -40 15 l-25 15
25 -7 c14 -3 32 -10 40 -15z m3730 14 c-1 -13 -29 -59 -30 -48 0 21 13 55 21
55 5 0 9 -3 9 -7z m-2813 -25 c-3 -8 -6 -5 -6 6 -1 11 2 17 5 13 3 -3 4 -12 1
-19z m2644 -126 c-8 -13 -10 0 -11 50 0 92 14 121 18 35 2 -37 -2 -75 -7 -85z
m-2401 127 c0 -5 -13 -24 -30 -42 -35 -37 -40 -20 -8 23 22 31 38 38 38 19z
m1685 1 c3 -6 -1 -13 -9 -16 -31 -12 -15 -23 37 -26 l53 -3 -8 -32 c-7 -29
-13 -33 -41 -33 -18 0 -39 -6 -48 -13 -15 -11 -15 -15 -3 -32 23 -31 17 -53
-13 -57 -22 -2 -29 -9 -31 -30 l-3 -28 -193 0 -194 0 -1 105 -2 105 223 3 223
2 -227 3 -228 2 0 -115 0 -115 203 0 c195 0 203 -1 215 -21 8 -12 10 -25 5
-30 -4 -4 -51 -10 -103 -12 -59 -3 -48 -3 32 -2 l126 2 4 -49 3 -48 -272 0
-273 0 0 225 0 225 259 0 c164 0 262 -4 266 -10z m955 0 c12 -8 11 -15 -7 -54
-20 -41 -25 -44 -56 -43 -32 2 -34 4 -27 28 20 68 52 93 90 69z m-2282 -222
l2 -218 -187 0 -188 0 3 45 c2 25 7 45 11 45 4 0 5 16 3 35 l-4 35 151 0 151
0 0 115 0 115 -150 0 -150 0 16 25 17 25 161 -2 161 -3 3 -217z m-1433 170
c16 -104 15 -109 -10 -38 -29 89 -28 80 -11 80 9 0 17 -16 21 -42z m924 -37
l-1 -46 -9 44 c-4 23 -11 53 -14 65 -6 21 -6 21 9 2 10 -12 16 -38 15 -65z
m-784 -7 c-45 -70 -54 -70 -34 -1 7 25 21 44 42 57 17 11 33 18 34 16 2 -2
-17 -34 -42 -72z m482 62 c-3 -7 6 -30 19 -50 34 -50 21 -45 -16 6 -34 47 -37
58 -14 58 10 0 14 -6 11 -14z m47 -27 c15 -22 26 -45 23 -52 -2 -8 -57 76 -57
89 0 11 10 0 34 -37z m2297 31 c11 -6 19 -21 19 -35 0 -23 -4 -25 -49 -25 -61
0 -83 20 -56 50 20 22 55 26 86 10z m-3001 -40 c28 -55 25 -60 -10 -14 -31 41
-36 54 -20 54 5 0 19 -18 30 -40z m1033 29 c-7 -7 -10 -26 -8 -43 4 -27 4 -28
-3 -6 l-8 25 -7 -25 c-9 -36 -20 -16 -13 25 5 27 12 35 28 35 17 0 19 -3 11
-11z m-161 -35 c-6 -11 -11 -13 -16 -5 -4 6 -2 11 3 11 6 0 11 8 12 18 0 9 3
12 5 5 3 -7 1 -20 -4 -29z m2396 29 c-43 -2 -113 -2 -155 0 -43 1 -8 3 77 3
85 0 120 -2 78 -3z m-2974 -27 c-3 -8 -16 -22 -30 -30 -22 -15 -23 -15 -17 1
9 27 24 43 39 43 8 0 11 -6 8 -14z m1106 -91 l0 -105 -145 0 c-135 0 -145 1
-145 19 0 10 7 24 16 32 11 9 14 22 10 42 -4 17 -1 36 6 45 10 12 7 19 -15 38
-15 13 -27 26 -27 29 0 3 68 5 150 5 l150 0 0 -105z m1991 83 c19 -35 29 -92
39 -213 5 -60 11 -119 12 -130 2 -15 -4 -21 -25 -23 -25 -3 -27 -1 -22 20 4
13 -1 44 -10 69 -9 24 -21 71 -27 104 -6 33 -15 63 -22 67 -6 4 -50 8 -97 8
-47 0 -113 3 -147 6 -56 6 -61 9 -64 33 -2 14 1 38 7 54 l9 27 168 0 c163 0
168 -1 179 -22z m54 11 c12 -19 -5 -23 -22 -6 -16 16 -16 17 -1 17 9 0 20 -5
23 -11z m-3215 -13 c0 -17 -50 -79 -58 -72 -5 6 44 86 53 86 3 0 5 -6 5 -14z
m-245 -38 c14 -17 33 -44 41 -62 l15 -31 -19 22 c-11 12 -31 36 -44 52 -14 16
-33 31 -43 32 -10 2 -20 9 -22 15 -8 23 48 1 72 -28z m2902 20 c-3 -8 -6 -5
-6 6 -1 11 2 17 5 13 3 -3 4 -12 1 -19z m-2044 -3 c-3 -9 -8 -14 -10 -11 -3 3
-2 9 2 15 9 16 15 13 8 -4z m2714 -17 c-3 -7 -5 -2 -5 12 0 14 2 19 5 13 2 -7
2 -19 0 -25z m80 10 c-3 -8 -6 -5 -6 6 -1 11 2 17 5 13 3 -3 4 -12 1 -19z
m-2521 0 c5 -7 1 -9 -13 -6 -11 3 -29 1 -39 -5 -17 -9 -18 -9 -5 6 16 20 47
22 57 5z m1826 -5 c8 -34 -3 -54 -25 -51 -28 4 -35 38 -11 55 24 17 31 16 36
-4z m52 4 c24 -17 13 -57 -15 -57 -15 0 -19 7 -19 35 0 38 6 42 34 22z m-2329
-17 c3 -5 -3 -10 -14 -10 -12 0 -21 5 -21 10 0 6 6 10 14 10 8 0 18 -4 21 -10z
m2169 4 c23 -9 20 -44 -3 -44 -26 0 -44 23 -29 38 14 14 12 14 32 6z m33 -26
c-3 -7 -5 -2 -5 12 0 14 2 19 5 13 2 -7 2 -19 0 -25z m819 8 c0 -13 -3 -22 -6
-20 -2 3 -14 -12 -27 -33 -17 -29 -23 -33 -23 -18 0 18 44 95 54 95 2 0 3 -11
2 -24z m-2781 -6 c15 -17 30 -20 89 -19 39 0 80 4 91 9 11 5 14 9 7 9 -7 1
-10 6 -7 11 13 22 25 8 25 -30 l0 -40 -121 0 -121 0 6 34 c5 23 3 36 -6 39 -9
4 -8 6 3 6 9 1 24 -8 34 -19z m-808 -12 c-3 -8 -6 -5 -6 6 -1 11 2 17 5 13 3
-3 4 -12 1 -19z m109 -16 c-17 -16 -18 -16 -5 5 7 12 15 20 18 17 3 -2 -3 -12
-13 -22z m3274 0 c0 -15 -2 -15 -10 -2 -13 20 -13 33 0 25 6 -3 10 -14 10 -23z
m-2640 -12 c0 -19 -7 -20 -90 -20 -83 0 -90 1 -90 20 0 19 7 20 90 20 83 0 90
-1 90 -20z m2250 -4 c0 -16 -27 -46 -41 -46 -13 0 -22 27 -15 45 7 19 56 20
56 1z m462 -31 l3 -45 -43 0 c-25 0 -41 4 -37 10 3 5 12 7 20 3 12 -4 15 4 17
33 l1 39 4 -37 c2 -21 8 -38 14 -38 5 0 7 17 3 40 -4 25 -3 40 4 40 5 0 12
-20 14 -45z m43 -3 c0 -23 -3 -42 -7 -42 -5 0 -8 6 -8 14 0 7 -3 28 -7 46 -5
26 -3 32 8 28 9 -3 14 -20 14 -46z m-745 -10 l0 -26 -21 21 c-14 13 -19 28
-15 38 9 25 36 0 36 -33z m170 23 c0 -14 -5 -25 -11 -25 -5 0 -7 5 -3 12 4 7
3 8 -4 4 -19 -12 -35 3 -21 20 18 22 39 17 39 -11z m293 18 c3 -5 -24 -6 -60
-5 -47 3 -63 1 -58 -8 5 -8 -7 -10 -39 -9 -45 3 -59 12 -33 22 20 8 185 8 190
0z m167 -31 c0 -15 -2 -15 -10 -2 -13 20 -13 33 0 25 6 -3 10 -14 10 -23z
m-570 12 c0 -3 -9 -17 -20 -31 l-20 -26 0 26 c0 23 10 34 33 36 4 1 7 -2 7 -5z
m-2690 -24 c0 -20 -5 -20 -122 -18 -84 2 -123 7 -125 15 -3 9 20 13 84 16 48
1 105 4 126 5 31 2 37 -1 37 -18z m2750 -6 c0 -18 -24 -28 -46 -20 -15 6 -15
8 1 26 18 20 45 17 45 -6z m367 -92 c-28 -5 -30 1 -16 65 l14 58 10 -60 c10
-55 9 -60 -8 -63z m-2511 75 c-3 -16 -6 -40 -6 -53 0 -23 -3 -24 -69 -24 -77
0 -81 4 -81 71 l0 38 81 -1 81 -1 -6 -30z m264 16 c-1 -54 -20 -197 -28 -205
-17 -17 -20 5 -11 62 5 30 9 79 10 108 2 36 6 52 16 52 7 0 13 -8 13 -17z
m-44 -70 c-13 -139 -9 -133 -82 -133 -64 0 -64 0 -64 28 0 16 -3 63 -6 105
l-7 77 83 0 83 0 -7 -77z m1763 68 c18 -11 5 -31 -20 -31 -18 0 -26 20 -12 33
8 9 15 9 32 -2z m191 -6 c0 -8 -7 -15 -15 -15 -9 0 -12 6 -9 15 4 8 10 15 15
15 5 0 9 -7 9 -15z m120 -4 c0 -11 -4 -22 -8 -25 -14 -9 -35 12 -29 28 9 23
37 20 37 -3z m170 10 c0 -34 -13 -41 -80 -41 -67 0 -80 7 -80 41 0 5 36 9 80
9 44 0 80 -4 80 -9z m344 -12 c-3 -5 -10 -7 -15 -3 -5 3 -7 10 -3 15 3 5 10 7
15 3 5 -3 7 -10 3 -15z m-574 2 c0 -11 -40 -41 -54 -41 -5 0 1 11 14 25 24 26
40 32 40 16z m-145 -21 c3 -5 1 -10 -4 -10 -6 0 -11 5 -11 10 0 6 2 10 4 10 3
0 8 -4 11 -10z m-2731 -67 c-12 -99 -15 -103 -82 -103 l-59 0 -7 51 c-4 29
-10 65 -13 80 l-5 29 86 0 87 0 -7 -57z m2938 -29 l3 -75 -40 3 -40 3 3 60 c5
87 7 92 41 87 29 -4 30 -5 33 -78z m-194 69 l-58 -4 0 -77 c-1 -59 -3 -73 -11
-59 -6 10 -9 45 -7 78 2 33 -1 61 -7 63 -5 3 24 4 65 3 67 -1 69 -1 18 -4z
m344 -13 c-2 -8 -9 -41 -15 -72 l-11 -58 -41 0 c-22 0 -46 5 -53 12 -7 7 -12
38 -12 69 l0 58 38 4 c67 7 97 3 94 -13z m86 -37 c-10 -2 -26 -2 -35 0 -10 3
-2 5 17 5 19 0 27 -2 18 -5z m302 -28 c0 -13 -15 -15 -97 -13 -66 2 -98 7
-101 16 -3 9 21 12 97 12 84 0 101 -3 101 -15z m-280 -18 c0 -47 -47 -63 -74
-25 -27 38 -20 48 29 48 40 0 45 -2 45 -23z m-1130 -37 c0 -6 -134 -10 -381
-10 -251 0 -378 3 -374 10 4 6 142 10 381 10 243 0 374 -4 374 -10z m-1894
-65 l-49 -35 264 -2 264 -3 -69 -57 c-39 -32 -78 -58 -88 -58 -10 0 -17 -6
-15 -12 1 -10 -100 -14 -475 -16 -317 -1 -478 1 -478 8 0 6 140 11 403 12
l402 3 -315 3 -315 3 165 81 c195 95 227 106 300 107 l55 1 -49 -35z m487 22
c42 1 44 -3 20 -29 -15 -17 -36 -18 -267 -18 l-251 1 35 30 35 31 195 -8 c107
-4 212 -7 233 -7z m338 -59 c-33 -40 -78 -90 -100 -111 l-40 -37 -175 0 c-102
1 -176 5 -176 11 0 10 4 11 75 11 l50 0 -48 7 -48 6 90 79 91 79 81 3 c45 2
89 9 98 14 9 5 49 10 89 10 l73 0 -60 -72z m552 50 c-3 -13 -14 -54 -25 -93
-11 -38 -21 -77 -22 -85 -3 -13 -46 -15 -309 -18 -203 -1 -307 1 -307 8 0 6
48 11 123 12 l122 2 -107 5 -107 6 77 93 76 92 242 0 242 0 -5 -22z m637 -4
c6 -14 10 -27 10 -30 0 -2 -144 -4 -320 -4 -338 0 -331 -1 -314 44 5 14 42 16
310 16 l304 0 10 -26z m364 -66 l66 -93 -177 -3 c-97 -1 -180 1 -184 5 -4 5
-21 47 -37 96 l-30 87 148 0 148 0 66 -92z m955 70 c14 -12 14 -11 3 4 -13 16
-10 17 40 12 46 -5 70 -17 181 -91 70 -47 127 -87 127 -89 0 -2 -17 -4 -39 -4
-31 0 -64 16 -167 81 -71 44 -120 71 -109 60 11 -11 65 -47 119 -80 l100 -61
-260 -3 -259 -2 308 -3 c194 -1 307 -6 307 -12 0 -6 -211 -10 -600 -10 l-599
0 -43 58 c-24 31 -60 80 -80 107 l-36 50 495 -2 c384 -2 499 -5 512 -15z
m-3649 -79 c-181 -88 -186 -90 -250 -87 l-65 3 150 74 c128 63 160 75 223 81
40 4 76 10 79 14 4 3 16 6 27 5 12 0 -62 -41 -164 -90z m2367 -36 c15 -49 17
-70 9 -75 -17 -12 -704 -10 -711 2 -4 6 16 11 52 12 l58 2 -56 3 -57 4 15 59
15 60 328 0 327 0 20 -67z m403 -73 c0 -12 -277 -13 -335 -1 -27 6 20 9 148
10 119 1 187 -3 187 -9z m-2160 -36 c0 -15 -39 -16 -447 -12 -287 3 -457 9
-473 16 -18 8 101 11 448 11 429 1 472 0 472 -15z m390 1 c0 -13 -27 -15 -185
-15 -158 0 -185 2 -185 15 0 13 27 15 185 15 158 0 185 -2 185 -15z m640 0 c0
-13 -41 -15 -309 -15 -281 0 -334 4 -314 24 3 3 145 6 315 6 267 0 308 -2 308
-15z m750 0 c0 -13 -47 -15 -365 -15 -318 0 -365 2 -365 15 0 13 47 15 365 15
318 0 365 -2 365 -15z m390 0 c0 -13 -27 -15 -185 -15 -158 0 -185 2 -185 15
0 13 27 15 185 15 158 0 185 -2 185 -15z m594 0 c5 -14 -29 -15 -286 -13 -222
2 -292 6 -296 16 -3 9 59 12 286 12 250 0 291 -2 296 -15z m606 3 c-14 -5
-150 -12 -307 -15 -258 -5 -283 -5 -283 11 0 14 28 16 308 15 221 0 300 -3
282 -11z"/>
<path d="M2013 4193 c361 -2 953 -2 1315 0 361 1 65 2 -658 2 -723 0 -1019 -1
-657 -2z"/>
<path d="M2317 4073 c-4 -3 -7 -15 -7 -25 0 -13 7 -18 28 -17 24 2 24 2 4 6
-29 6 -24 25 9 34 l24 7 -26 1 c-14 1 -29 -2 -32 -6z"/>
<path d="M2428 4045 c2 -19 8 -35 13 -35 5 0 6 6 3 14 -4 9 3 16 18 19 l23 4
-22 2 c-27 1 -30 18 -5 24 11 3 8 5 -8 6 -24 1 -26 -2 -22 -34z"/>
<path d="M2538 4073 c29 -4 32 -7 34 -41 l1 -37 4 35 c3 19 10 38 16 42 7 4
-10 7 -38 6 -36 -1 -41 -2 -17 -5z"/>
<path d="M2649 4043 c-4 -41 -3 -43 21 -42 17 1 19 3 8 6 -20 5 -25 33 -5 33
8 0 9 3 1 8 -6 4 -13 14 -16 22 -3 8 -7 -4 -9 -27z"/>
<path d="M2740 4040 c0 -39 1 -40 33 -39 30 2 30 2 5 6 -31 5 -38 29 -10 36
16 4 16 5 0 6 -10 0 -18 5 -18 10 0 5 8 12 18 14 13 4 11 5 -5 6 -20 1 -23 -4
-23 -39z"/>
<path d="M2831 4038 c1 -24 4 -33 6 -20 3 14 12 22 24 22 11 0 18 4 14 10 -3
5 -12 7 -20 3 -8 -3 -15 0 -15 5 0 6 12 13 28 15 25 4 25 4 -5 6 -33 1 -33 0
-32 -41z"/>
<path d="M2320 4010 c8 -5 20 -10 25 -10 6 0 3 5 -5 10 -8 5 -19 10 -25 10 -5
0 -3 -5 5 -10z"/>
<path d="M1542 2763 c37 -2 100 -2 140 0 40 1 10 3 -67 3 -77 0 -110 -1 -73
-3z"/>
<path d="M3237 3303 c-4 -3 -7 -11 -7 -17 0 -6 5 -5 12 2 6 6 9 14 7 17 -3 3
-9 2 -12 -2z"/>
<path d="M3388 2763 c7 -3 16 -2 19 1 4 3 -2 6 -13 5 -11 0 -14 -3 -6 -6z"/>
<path d="M2400 3282 c0 -12 19 -26 26 -19 2 2 -2 10 -11 17 -9 8 -15 8 -15 2z"/>
<path d="M3922 3254 c8 -9 23 -14 33 -12 12 2 7 7 -16 15 -30 12 -32 11 -17
-3z"/>
<path d="M470 3069 c0 -5 5 -7 10 -4 6 3 10 8 10 11 0 2 -4 4 -10 4 -5 0 -10
-5 -10 -11z"/>
<path d="M560 2999 c0 -5 5 -7 10 -4 6 3 10 8 10 11 0 2 -4 4 -10 4 -5 0 -10
-5 -10 -11z"/>
<path d="M2433 2773 l-233 -3 -2 -353 c-3 -363 2 -1008 7 -1036 2 -9 4 -76 4
-148 1 -111 3 -133 16 -133 13 0 15 99 15 830 l0 830 298 0 297 0 -3 -565 c-1
-311 -6 -565 -10 -565 -4 0 -6 235 -4 522 1 288 0 538 -3 556 l-6 32 -269 0
-270 0 0 -540 0 -540 124 0 c73 0 127 4 131 10 8 13 265 13 265 1 0 -5 3 -16
6 -25 5 -14 -9 -16 -120 -16 -104 0 -126 3 -126 15 0 11 21 15 103 18 l102 3
-114 2 c-109 2 -113 1 -108 -18 5 -19 0 -20 -134 -20 -86 0 -139 -4 -139 -10
0 -6 102 -10 285 -10 l285 0 0 -250 0 -250 -275 0 -275 0 0 25 0 25 270 0 271
0 -3 135 -3 135 -260 -6 c-143 -4 -262 -8 -264 -10 -2 -2 111 -4 252 -4 l257
0 0 -104 c0 -57 -3 -111 -6 -120 -5 -14 -37 -16 -254 -16 l-247 0 -5 133 c-3
72 -3 135 -1 140 2 4 123 7 269 7 l264 0 0 60 0 60 -280 0 -280 0 0 -240 0
-240 298 2 297 3 0 825 c1 454 -1 833 -3 843 -4 15 -16 17 -96 15 -50 -2 -196
-4 -323 -5z m304 -169 c-24 -28 -34 -25 -17 6 8 15 8 20 1 16 -15 -10 -14 7 1
22 10 10 15 9 25 -3 9 -14 7 -21 -10 -41z m58 -14 c3 -5 2 -10 -4 -10 -5 0
-13 5 -16 10 -3 6 -2 10 4 10 5 0 13 -4 16 -10z m-25 -40 c0 -6 -32 -10 -75
-10 -43 0 -75 4 -75 10 0 6 32 10 75 10 43 0 75 -4 75 -10z m-195 -130 c3 -5
1 -10 -4 -10 -6 0 -11 5 -11 10 0 6 2 10 4 10 3 0 8 -4 11 -10z m105 0 c0 -5
-4 -10 -10 -10 -5 0 -10 5 -10 10 0 6 5 10 10 10 6 0 10 -4 10 -10z m-217 -7
c-18 -2 -48 -2 -65 0 -18 2 -4 4 32 4 36 0 50 -2 33 -4z m231 -99 c9 -9 16
-32 16 -55 0 -37 -2 -39 -30 -39 -28 0 -30 3 -30 35 0 31 3 35 26 35 14 0 23
4 19 10 -3 6 -15 10 -26 10 -11 0 -17 5 -14 10 9 14 21 12 39 -6z m-194 -39
c0 -25 -4 -45 -10 -45 -5 0 -10 20 -10 45 0 25 5 45 10 45 6 0 10 -20 10 -45z
m48 0 c2 -34 -1 -45 -13 -45 -11 0 -15 12 -15 45 0 31 4 45 13 45 9 0 14 -15
15 -45z m67 -20 c0 -23 -4 -30 -20 -30 -21 0 -31 25 -21 51 11 28 41 12 41
-21z m-255 -25 c0 -5 -9 -10 -20 -10 -11 0 -20 5 -20 10 0 6 9 10 20 10 11 0
20 -4 20 -10z m80 0 c0 -5 -13 -10 -30 -10 -16 0 -30 5 -30 10 0 6 14 10 30
10 17 0 30 -4 30 -10z m330 0 c0 -5 -7 -10 -15 -10 -8 0 -15 5 -15 10 0 6 7
10 15 10 8 0 15 -4 15 -10z m-400 -30 c0 -5 -11 -10 -25 -10 -14 0 -25 5 -25
10 0 6 11 10 25 10 14 0 25 -4 25 -10z m410 -1 c0 -5 -83 -9 -200 -9 -130 0
-200 4 -200 10 0 7 70 10 200 10 116 -1 200 -5 200 -11z m-176 -105 c14 -37 7
-49 -29 -49 -33 0 -35 2 -35 33 0 29 3 32 29 32 17 0 31 -6 35 -16z m-99 -4
c4 -6 -10 -10 -34 -10 -30 0 -41 -4 -41 -15 0 -8 5 -15 11 -15 5 0 7 5 4 10
-4 6 8 10 29 10 25 0 36 -4 36 -15 0 -11 -12 -15 -50 -15 -46 0 -50 2 -50 24
0 15 7 26 18 29 32 9 71 7 77 -3z m-122 -7 c-13 -2 -33 -2 -45 0 -13 2 -3 4
22 4 25 0 35 -2 23 -4z m344 -9 c-3 -3 -12 -4 -19 -1 -8 3 -5 6 6 6 11 1 17
-2 13 -5z m-337 -20 c0 -11 -8 -14 -32 -12 -46 4 -49 28 -4 28 26 0 36 -4 36
-16z m330 -4 c0 -5 -4 -10 -9 -10 -6 0 -13 5 -16 10 -3 6 1 10 9 10 9 0 16 -4
16 -10z m70 -30 c0 -6 -87 -10 -240 -10 -153 0 -240 4 -240 10 0 6 87 10 240
10 153 0 240 -4 240 -10z m-185 -159 c4 -7 -4 -11 -21 -11 -23 0 -25 3 -20 23
4 12 10 38 13 57 l7 35 7 -47 c4 -26 10 -52 14 -57z m137 60 c2 -17 1 -28 -4
-25 -8 5 -12 54 -4 54 2 0 6 -13 8 -29z m-318 -53 c10 -39 7 -113 -6 -126 -7
-7 -29 -12 -50 -12 l-38 0 0 80 0 80 44 0 c37 0 45 -4 50 -22z m311 12 c3 -5
-3 -10 -15 -10 -12 0 -18 5 -15 10 3 6 10 10 15 10 5 0 12 -4 15 -10z m-228
-41 l1 -34 -8 30 c-7 29 -8 28 -9 -12 -1 -34 2 -41 14 -37 11 5 15 -1 15 -20
0 -17 -5 -26 -15 -26 -11 0 -14 -7 -9 -25 5 -19 2 -25 -10 -25 -9 0 -16 6 -17
13 -3 31 3 163 8 170 11 18 28 -2 30 -34z m261 -41 l-3 -63 -37 -3 -38 -3 0
65 0 66 40 0 41 0 -3 -62z m-148 -19 c0 -35 -3 -39 -25 -39 -17 0 -25 5 -25
18 0 35 12 58 31 59 16 2 19 -5 19 -38z m-60 -4 c0 -19 -4 -35 -10 -35 -5 0
-10 16 -10 35 0 19 5 35 10 35 6 0 10 -16 10 -35z m87 -17 c-2 -13 -4 -5 -4
17 -1 22 1 32 4 23 2 -10 2 -28 0 -40z m-207 -50 c0 -9 -18 -13 -55 -13 -83 0
-68 21 18 24 23 1 37 -4 37 -11z m180 -3 c0 -11 -12 -15 -45 -15 -33 0 -45 4
-45 15 0 11 12 15 45 15 33 0 45 -4 45 -15z m-227 -32 c-18 -2 -48 -2 -65 0
-18 2 -4 4 32 4 36 0 50 -2 33 -4z"/>
<path d="M2363 1863 c9 -2 25 -2 35 0 9 3 1 5 -18 5 -19 0 -27 -2 -17 -5z"/>
<path d="M2708 1823 c6 -2 18 -2 25 0 6 3 1 5 -13 5 -14 0 -19 -2 -12 -5z"/>
<path d="M3168 2683 c6 -2 18 -2 25 0 6 3 1 5 -13 5 -14 0 -19 -2 -12 -5z"/>
<path d="M1288 2273 c7 -3 16 -2 19 1 4 3 -2 6 -13 5 -11 0 -14 -3 -6 -6z"/>
<path d="M1268 2143 c12 -2 30 -2 40 0 9 3 -1 5 -23 4 -22 0 -30 -2 -17 -4z"/>
<path d="M1463 2243 c15 -2 37 -2 50 0 12 2 0 4 -28 4 -27 0 -38 -2 -22 -4z"/>
<path d="M3508 2203 c-16 -4 -18 -17 -18 -100 l0 -96 38 7 c20 3 70 6 110 6
l73 0 -3 93 -3 92 -90 2 c-49 0 -98 -1 -107 -4z m182 -28 c0 -11 -19 -15 -87
-18 l-88 -3 93 -2 c124 -3 112 -22 -14 -22 -52 0 -94 2 -94 4 0 3 4 16 10 30
9 25 12 26 95 26 68 0 85 -3 85 -15z m-10 -75 c0 -18 -7 -20 -82 -22 l-83 -2
83 -3 c74 -3 82 -6 82 -23 0 -18 -7 -20 -85 -20 l-85 0 0 45 0 45 85 0 c78 0
85 -2 85 -20z"/>
<path d="M3300 2001 c0 -6 5 -13 12 -17 6 -4 8 -3 4 4 -3 5 0 13 6 15 8 3 6 6
-4 6 -10 1 -18 -3 -18 -8z"/>
<path d="M1520 1841 c0 -5 7 -12 16 -15 14 -5 15 -4 4 9 -14 17 -20 19 -20 6z"/>
<path d="M3280 1695 c18 -21 46 -28 70 -15 29 16 25 32 -6 20 -16 -7 -32 -7
-44 0 -27 14 -34 12 -20 -5z"/>
<path d="M3100 1620 c0 -5 7 -10 15 -10 8 0 15 5 15 10 0 6 -7 10 -15 10 -8 0
-15 -4 -15 -10z"/>
<path d="M3778 1643 c7 -3 16 -2 19 1 4 3 -2 6 -13 5 -11 0 -14 -3 -6 -6z"/>
<path d="M3760 1581 c0 -4 11 -6 25 -3 14 2 25 6 25 8 0 2 -11 4 -25 4 -14 0
-25 -4 -25 -9z"/>
<path d="M1785 1601 c3 -5 19 -8 36 -6 48 6 48 15 0 15 -23 0 -40 -4 -36 -9z"/>
<path d="M3408 1413 c7 -3 16 -2 19 1 4 3 -2 6 -13 5 -11 0 -14 -3 -6 -6z"/>
<path d="M1658 783 c6 -2 18 -2 25 0 6 3 1 5 -13 5 -14 0 -19 -2 -12 -5z"/>
<path d="M2328 913 c12 -2 30 -2 40 0 9 3 -1 5 -23 4 -22 0 -30 -2 -17 -4z"/>
<path d="M2283 783 c9 -2 23 -2 30 0 6 3 -1 5 -18 5 -16 0 -22 -2 -12 -5z"/>
<path d="M3905 906 c22 -20 62 -53 88 -73 l48 -38 -53 -5 -53 -6 70 -5 c39 -3
74 -1 80 3 5 5 2 8 -7 8 -9 0 -49 26 -89 58 l-74 57 245 5 245 6 -248 2 c-153
1 -257 6 -270 13 -12 6 -4 -5 18 -25z"/>
<path d="M4674 3038 c18 -14 16 -15 -23 -21 -49 -6 -87 -36 -107 -84 -21 -49
-20 -393 1 -434 36 -68 139 -91 206 -46 56 37 59 52 59 275 0 167 -3 210 -16
238 -17 36 -61 68 -109 79 -28 7 -29 6 -11 -7z m56 -28 c8 -5 11 -10 5 -10 -5
0 -17 5 -25 10 -8 5 -10 10 -5 10 6 0 17 -5 25 -10z m16 -51 l29 -30 0 -209 0
-210 -28 -27 c-23 -23 -36 -28 -78 -28 -43 0 -54 4 -75 28 -13 15 -24 36 -23
45 0 14 2 13 8 -3 26 -63 110 -81 158 -33 l27 27 -3 198 c-1 119 -7 205 -13
217 -34 64 -122 60 -160 -7 -8 -14 -15 -86 -19 -202 l-5 -180 -2 170 c-1 147
1 176 17 211 23 50 43 63 97 64 32 0 46 -6 70 -31z m-83 -96 c-5 -13 -2 -15
11 -10 10 4 15 3 11 -3 -11 -18 -35 -11 -35 10 0 11 4 20 10 20 5 0 6 -8 3
-17z m34 -88 c-4 -8 -12 -15 -19 -14 -10 0 -10 2 0 6 6 2 12 12 12 21 0 8 3
13 6 9 4 -3 4 -13 1 -22z m-43 0 c3 -8 1 -15 -4 -15 -6 0 -10 7 -10 15 0 8 2
15 4 15 2 0 6 -7 10 -15z m77 -74 c-7 -5 -10 -14 -7 -20 4 -6 2 -11 -3 -11
-12 0 -15 23 -4 33 3 4 11 7 17 7 6 0 5 -4 -3 -9z m-102 -23 c0 -22 -1 -22 -9
-3 -5 12 -9 14 -9 6 -1 -8 -4 -12 -7 -8 -8 7 4 27 17 27 5 0 9 -10 8 -22z m53
1 c-9 -9 -21 -13 -26 -9 -12 12 0 26 23 26 19 0 19 -1 3 -17z m-59 -69 c3 -11
1 -18 -4 -14 -5 3 -9 12 -9 20 0 20 7 17 13 -6z m49 11 c8 12 9 12 6 0 -6 -22
-28 -25 -27 -4 0 12 2 14 6 4 5 -11 7 -11 15 0z m25 -13 c-3 -8 -6 -5 -6 6 -1
11 2 17 5 13 3 -3 4 -12 1 -19z"/>
</g>
</svg>